<?xml version="1.0" encoding="UTF-8"?>
<!DOCTYPE svg PUBLIC "-//W3C//DTD SVG 1.1//EN" "http://www.w3.org/Graphics/SVG/1.1/DTD/svg11.dtd">
<svg width="219mm" height="90mm" viewBox="0 0 21900 9000" version="1.1" xmlns="http://www.w3.org/2000/svg" xmlns:xlink="http://www.w3.org/1999/xlink" stroke-width="28.222" stroke-linejoin="round" xml:space="preserve">
 <path fill="rgb(255,255,255)" stroke="none" d="M 10970,9009 L 0,9009 0,0 21940,0 21940,9009 10970,9009 Z"/>
 <path fill="none" stroke="rgb(179,179,179)" stroke-linejoin="round" d="M 12142,8180 L 2716,8180 2716,378 21568,378 21568,8180 12142,8180 Z"/>
 <path fill="none" stroke="rgb(179,179,179)" stroke-linejoin="round" d="M 21568,8179 L 2716,8179"/>
 <path fill="none" stroke="rgb(179,179,179)" stroke-linejoin="round" d="M 21568,6228 L 2716,6228"/>
 <path fill="none" stroke="rgb(179,179,179)" stroke-linejoin="round" d="M 21568,4278 L 2716,4278"/>
 <path fill="none" stroke="rgb(179,179,179)" stroke-linejoin="round" d="M 21568,2327 L 2716,2327"/>
 <path fill="none" stroke="rgb(179,179,179)" stroke-linejoin="round" d="M 21568,376 L 2716,376"/>
 <path fill="none" stroke="rgb(179,179,179)" stroke-linejoin="round" d="M 2716,8329 L 2716,8179"/>
 <path fill="none" stroke="rgb(179,179,179)" stroke-linejoin="round" d="M 2716,8329 L 2716,8179"/>
 <path fill="none" stroke="rgb(179,179,179)" stroke-linejoin="round" d="M 7429,8329 L 7429,8179"/>
 <path fill="none" stroke="rgb(179,179,179)" stroke-linejoin="round" d="M 7429,8329 L 7429,8179"/>
 <path fill="none" stroke="rgb(179,179,179)" stroke-linejoin="round" d="M 12141,8329 L 12141,8179"/>
 <path fill="none" stroke="rgb(179,179,179)" stroke-linejoin="round" d="M 12141,8329 L 12141,8179"/>
 <path fill="none" stroke="rgb(179,179,179)" stroke-linejoin="round" d="M 16854,8329 L 16854,8179"/>
 <path fill="none" stroke="rgb(179,179,179)" stroke-linejoin="round" d="M 16854,8329 L 16854,8179"/>
 <path fill="none" stroke="rgb(179,179,179)" stroke-linejoin="round" d="M 21568,8329 L 21568,8179"/>
 <path fill="none" stroke="rgb(179,179,179)" stroke-linejoin="round" d="M 21568,8329 L 21568,8179"/>
 <path fill="none" stroke="rgb(179,179,179)" stroke-linejoin="round" d="M 2716,8179 L 21568,8179"/>
 <path fill="none" stroke="rgb(179,179,179)" stroke-linejoin="round" d="M 2566,8179 L 2716,8179"/>
 <path fill="none" stroke="rgb(179,179,179)" stroke-linejoin="round" d="M 2566,8179 L 2716,8179"/>
 <path fill="none" stroke="rgb(179,179,179)" stroke-linejoin="round" d="M 2566,6228 L 2716,6228"/>
 <path fill="none" stroke="rgb(179,179,179)" stroke-linejoin="round" d="M 2566,6228 L 2716,6228"/>
 <path fill="none" stroke="rgb(179,179,179)" stroke-linejoin="round" d="M 2566,4278 L 2716,4278"/>
 <path fill="none" stroke="rgb(179,179,179)" stroke-linejoin="round" d="M 2566,4278 L 2716,4278"/>
 <path fill="none" stroke="rgb(179,179,179)" stroke-linejoin="round" d="M 2566,2327 L 2716,2327"/>
 <path fill="none" stroke="rgb(179,179,179)" stroke-linejoin="round" d="M 2566,2327 L 2716,2327"/>
 <path fill="none" stroke="rgb(179,179,179)" stroke-linejoin="round" d="M 2566,377 L 2716,377"/>
 <path fill="none" stroke="rgb(179,179,179)" stroke-linejoin="round" d="M 2566,377 L 2716,377"/>
 <path fill="none" stroke="rgb(179,179,179)" stroke-linejoin="round" d="M 2716,8179 L 2716,376"/>
 <path fill="rgb(0,69,134)" stroke="none" d="M 17191,8179 L 17864,8179 17864,600 17191,600 17191,8179 Z"/>
 <path fill="rgb(0,69,134)" stroke="none" d="M 12478,8179 L 13151,8179 13151,2366 12478,2366 12478,8179 Z"/>
 <path fill="rgb(0,69,134)" stroke="none" d="M 7765,8179 L 8439,8179 8439,4112 7765,4112 7765,8179 Z"/>
 <path fill="rgb(0,69,134)" stroke="none" d="M 3052,8179 L 3725,8179 3725,5730 3052,5730 3052,8179 Z"/>
 <path fill="rgb(255,66,14)" stroke="none" d="M 17864,8179 L 18538,8179 18538,1315 17864,1315 17864,8179 Z"/>
 <path fill="rgb(255,66,14)" stroke="none" d="M 13151,8179 L 13824,8179 13824,3065 13151,3065 13151,8179 Z"/>
 <path fill="rgb(255,66,14)" stroke="none" d="M 8439,8179 L 9112,8179 9112,4783 8439,4783 8439,8179 Z"/>
 <path fill="rgb(255,66,14)" stroke="none" d="M 3725,8179 L 4399,8179 4399,6280 3725,6280 3725,8179 Z"/>
 <path fill="rgb(255,211,32)" stroke="none" d="M 18538,8179 L 19211,8179 19211,1302 18538,1302 18538,8179 Z"/>
 <path fill="rgb(255,211,32)" stroke="none" d="M 13824,8179 L 14498,8179 14498,3065 13824,3065 13824,8179 Z"/>
 <path fill="rgb(255,211,32)" stroke="none" d="M 9112,8179 L 9785,8179 9785,4785 9112,4785 9112,8179 Z"/>
 <path fill="rgb(255,211,32)" stroke="none" d="M 4399,8179 L 5072,8179 5072,6289 4399,6289 4399,8179 Z"/>
 <path fill="rgb(87,157,28)" stroke="none" d="M 19211,8179 L 19884,8179 19884,1520 19211,1520 19211,8179 Z"/>
 <path fill="rgb(87,157,28)" stroke="none" d="M 14498,8179 L 15171,8179 15171,3280 14498,3280 14498,8179 Z"/>
 <path fill="rgb(87,157,28)" stroke="none" d="M 9785,8179 L 10459,8179 10459,4984 9785,4984 9785,8179 Z"/>
 <path fill="rgb(87,157,28)" stroke="none" d="M 5072,8179 L 5745,8179 5745,6449 5072,6449 5072,8179 Z"/>
 <path fill="rgb(126,0,33)" stroke="none" d="M 19884,8179 L 20558,8179 20558,3136 19884,3136 19884,8179 Z"/>
 <path fill="rgb(126,0,33)" stroke="none" d="M 15171,8179 L 15844,8179 15844,4851 15171,4851 15171,8179 Z"/>
 <path fill="rgb(126,0,33)" stroke="none" d="M 10459,8179 L 11131,8179 11131,6336 10459,6336 10459,8179 Z"/>
 <path fill="rgb(126,0,33)" stroke="none" d="M 5745,8179 L 6419,8179 6419,7635 5745,7635 5745,8179 Z"/>
 <path fill="rgb(131,202,255)" stroke="none" d="M 20558,8179 L 21231,8179 21231,3168 20558,3168 20558,8179 Z"/>
 <path fill="rgb(131,202,255)" stroke="none" d="M 15844,8179 L 16518,8179 16518,4880 15844,4880 15844,8179 Z"/>
 <path fill="rgb(131,202,255)" stroke="none" d="M 11131,8179 L 11804,8179 11804,6346 11131,6346 11131,8179 Z"/>
 <path fill="rgb(131,202,255)" stroke="none" d="M 6419,8179 L 7092,8179 7092,7681 6419,7681 6419,8179 Z"/>
 <text class="TextShape"><tspan class="TextParagraph" font-family="Liberation Sans, sans-serif" font-size="353px" font-weight="400"><tspan class="TextPosition" x="4424" y="8747"><tspan fill="rgb(0,0,0)" stroke="none">125x125</tspan></tspan></tspan></text>
 <text class="TextShape"><tspan class="TextParagraph" font-family="Liberation Sans, sans-serif" font-size="353px" font-weight="400"><tspan class="TextPosition" x="9137" y="8747"><tspan fill="rgb(0,0,0)" stroke="none">250x250</tspan></tspan></tspan></text>
 <text class="TextShape"><tspan class="TextParagraph" font-family="Liberation Sans, sans-serif" font-size="353px" font-weight="400"><tspan class="TextPosition" x="13851" y="8747"><tspan fill="rgb(0,0,0)" stroke="none">500x500</tspan></tspan></tspan></text>
 <text class="TextShape"><tspan class="TextParagraph" font-family="Liberation Sans, sans-serif" font-size="353px" font-weight="400"><tspan class="TextPosition" x="18378" y="8747"><tspan fill="rgb(0,0,0)" stroke="none">1000x1000</tspan></tspan></tspan></text>
 <text class="TextShape"><tspan class="TextParagraph" font-family="Liberation Sans, sans-serif" font-size="353px" font-weight="400"><tspan class="TextPosition" x="1805" y="8300"><tspan fill="rgb(0,0,0)" stroke="none">0.01</tspan></tspan></tspan></text>
 <text class="TextShape"><tspan class="TextParagraph" font-family="Liberation Sans, sans-serif" font-size="353px" font-weight="400"><tspan class="TextPosition" x="1990" y="6349"><tspan fill="rgb(0,0,0)" stroke="none">0.1</tspan></tspan></tspan></text>
 <text class="TextShape"><tspan class="TextParagraph" font-family="Liberation Sans, sans-serif" font-size="353px" font-weight="400"><tspan class="TextPosition" x="2281" y="4398"><tspan fill="rgb(0,0,0)" stroke="none">1</tspan></tspan></tspan></text>
 <text class="TextShape"><tspan class="TextParagraph" font-family="Liberation Sans, sans-serif" font-size="353px" font-weight="400"><tspan class="TextPosition" x="2096" y="2447"><tspan fill="rgb(0,0,0)" stroke="none">10</tspan></tspan></tspan></text>
 <text class="TextShape"><tspan class="TextParagraph" font-family="Liberation Sans, sans-serif" font-size="353px" font-weight="400"><tspan class="TextPosition" x="1910" y="497"><tspan fill="rgb(0,0,0)" stroke="none">100</tspan></tspan></tspan></text>
 <path fill="rgb(255,255,255)" stroke="none" d="M 7329,1442 L 2974,1442 2974,577 11684,577 11684,1442 7329,1442 Z"/>
 <path fill="rgb(0,69,134)" stroke="none" d="M 3495,1114 L 3390,1114 3390,903 3601,903 3601,1114 3495,1114 Z"/>
 <path fill="rgb(255,66,14)" stroke="none" d="M 4896,1114 L 4791,1114 4791,903 5002,903 5002,1114 4896,1114 Z"/>
 <path fill="rgb(255,211,32)" stroke="none" d="M 6297,1114 L 6192,1114 6192,903 6403,903 6403,1114 6297,1114 Z"/>
 <path fill="rgb(87,157,28)" stroke="none" d="M 7698,1114 L 7593,1114 7593,903 7804,903 7804,1114 7698,1114 Z"/>
 <path fill="rgb(126,0,33)" stroke="none" d="M 9099,1114 L 8994,1114 8994,903 9205,903 9205,1114 9099,1114 Z"/>
 <path fill="rgb(131,202,255)" stroke="none" d="M 10500,1114 L 10395,1114 10395,903 10606,903 10606,1114 10500,1114 Z"/>
 <text class="TextShape"><tspan class="TextParagraph" font-family="Liberation Sans, sans-serif" font-size="353px" font-weight="400"><tspan class="TextPosition" x="3701" y="1128"><tspan fill="rgb(0,0,0)" stroke="none">-O0</tspan></tspan></tspan></text>
 <text class="TextShape"><tspan class="TextParagraph" font-family="Liberation Sans, sans-serif" font-size="353px" font-weight="400"><tspan class="TextPosition" x="5102" y="1128"><tspan fill="rgb(0,0,0)" stroke="none">-O1</tspan></tspan></tspan></text>
 <text class="TextShape"><tspan class="TextParagraph" font-family="Liberation Sans, sans-serif" font-size="353px" font-weight="400"><tspan class="TextPosition" x="6503" y="1128"><tspan fill="rgb(0,0,0)" stroke="none">-O2</tspan></tspan></tspan></text>
 <text class="TextShape"><tspan class="TextParagraph" font-family="Liberation Sans, sans-serif" font-size="353px" font-weight="400"><tspan class="TextPosition" x="7904" y="1128"><tspan fill="rgb(0,0,0)" stroke="none">-O3</tspan></tspan></tspan></text>
 <text class="TextShape"><tspan class="TextParagraph" font-family="Liberation Sans, sans-serif" font-size="353px" font-weight="400"><tspan class="TextPosition" x="9305" y="1128"><tspan fill="rgb(0,0,0)" stroke="none">-O4</tspan></tspan></tspan></text>
 <text class="TextShape"><tspan class="TextParagraph" font-family="Liberation Sans, sans-serif" font-size="353px" font-weight="400"><tspan class="TextPosition" x="10706" y="1128"><tspan fill="rgb(0,0,0)" stroke="none">-O5</tspan></tspan></tspan></text>
 <text class="TextShape" transform="rotate(-90 1120 5688)"><tspan class="TextParagraph" font-family="Liberation Sans, sans-serif" font-size="318px" font-weight="400"><tspan class="TextPosition" x="1120" y="5688"><tspan fill="rgb(0,0,0)" stroke="none">Runtime [s] (matrico 0.1)</tspan></tspan></tspan></text>
</svg>